<?xml version="1.0" encoding="UTF-8"?>
<svg id="Layer_2" xmlns="http://www.w3.org/2000/svg" version="1.1" viewBox="0 0 718.7 250.8">
  <!-- Generator: Adobe Illustrator 29.5.0, SVG Export Plug-In . SVG Version: 2.1.0 Build 137)  -->
  <defs>
    <style>
      .st0 {
        fill: #fff;
      }
    </style>
  </defs>
  <g id="Layer_1-2">
    <g>
      <path class="st0" d="M86.4-186.3v11.4c0,.3-.3.6-.6.6h-2.3c-.3,0-.6-.3-.6-.6v-11.4h0s-6.6-103.9-6.6-103.9c0-.3-.3-.6-.6-.6h-34.4c-.3,0-.6.2-.6.6l-6.6,103.8h0v11.5c0,.3-.3.6-.6.6h-2.3c-.3,0-.6-.3-.6-.6v-11.4h0s-6.6-103.8-6.6-103.8c0-.3-.3-.6-.6-.6H-3.2c-.4,0-.6.3-.6.7l15.3,144.4c0,.3.3.5.6.5h36.3c.3,0,.6-.2.6-.6l7-95.5h0v-22.9c0-.3.3-.6.6-.6h2.3c.3,0,.6.3.6.6v22.9h0s7,95.5,7,95.5c0,.3.3.6.6.6h36.3c.3,0,.6-.2.6-.5l15.3-144.4c0-.4-.2-.7-.6-.7h-25c-.3,0-.6.2-.6.6l-6.8,103.8h0Z"/>
      <rect class="st0" x="131.3" y="-290.8" width="26.2" height="145.6" rx=".2" ry=".2"/>
      <path class="st0" d="M277.9-221.7v16.5c.1,1-.7,1.8-1.7,1.8h-11.4c-5.5,0-10.3-3.7-11.8-9l-19.2-69.4c-1.5-5.3-6.3-9-11.8-9h-46.9c-1,0-1.8.8-1.8,1.8v142c0,1,.8,1.8,1.8,1.8h22.6c1,0,1.8-.8,1.8-1.8v-83.7c-.1-1,.7-1.8,1.7-1.8h10.8c5.7,0,10.7,3.8,12.3,9.3l19.4,69.8c1.3,4.8,5.7,8.2,10.8,8.2h47.9c1,0,1.8-.8,1.8-1.8v-141.9c0-1-.8-1.8-1.8-1.8h-22.6c-1,0-1.8.8-1.8,1.8v67.2Z"/>
      <path class="st0" d="M353.8-293.3c-20.4,0-34.1,12.7-34.1,31.4v90.7c0,17,11,28.5,27.7,28.5s16.8-3.5,20.1-10.1c0,0,0,0,0-.1l.5-2c0-.3.3-.5.6-.5h1.1c.4,0,.7.3.6.7l-.3,1.7h0v7.1c0,.3.3.6.6.6h16.7c.3,0,.6-.3.6-.6v-83.4c0-.3-.3-.6-.6-.6h-32.9c-.3,0-.6.3-.6.6v20.4c0,.3.3.6.6.6h7.3c.3,0,.6.3.6.6v33.3c0,4.6-3.1,7.5-7.8,7.7s-8.6-3.7-8.6-8.4v-86.1c0-4.6,3.8-8.4,8.4-8.2s7.4,3.1,7.4,7.7v17.9c0,.3.3.6.6.6h25c.3,0,.6-.3.6-.6v-18.1c0-18.7-13.7-31.4-34.1-31.4h0Z"/>
      <path class="st0" d="M427.7-247.5v-14.6c0-4.6,2.9-7.3,7.3-7.3s7.5,2.9,7.5,7.3v19c0,.3.3.6.6.6h25c.3,0,.6-.3.6-.6v-18.7c0-18.9-13.5-31.4-33.7-31.4s-33.5,12.5-33.5,31.4v17.5c0,33.5,41.4,36,41.4,53.2v16c0,5.4-5.1,9.7-10.4,8.2-3.2-.9-5.2-3.5-5.2-7.4v-21c0-.3-.3-.6-.6-.6h-25c-.3,0-.6.3-.6.6v21c0,18.9,13.5,31.6,33.9,31.6s34.1-12.7,34.1-31.6v-20c0-33.5-41.4-35.8-41.4-53.2h0Z"/>
      <path class="st0" d="M518.3-290.8h-35c-.3,0-.6.3-.6.6v144.4c0,.3.3.6.6.6h25c.3,0,.6-.3.6-.6v-50.2c0-.3.3-.6.6-.6h8.8c19.5,0,32.4-12.1,32.4-30v-34.3c0-17.9-12.9-30-32.4-30h0ZM524.6-228.6c0,4.5-3.6,8.1-8.1,8.1h-6.9c-.3,0-.6-.3-.6-.6v-45.2c0-.3.3-.6.6-.6h6.7c4.6,0,8.3,3.7,8.3,8.3v30h0Z"/>
      <path class="st0" d="M571.5-290.2l-17.5,144.4c0,.4.2.7.6.7h25.2c.3,0,.6-.2.6-.6l2.8-34c0-.3.3-.6.6-.6h14.5c.3,0,.6.2.6.6l2.8,34c0,.3.3.6.6.6h26.4c.4,0,.6-.3.6-.7l-17.3-144.4c0-.3-.3-.5-.6-.5h-39.3c-.3,0-.6.2-.6.5h0ZM585.1-202.6l4.1-50.1h0v-11.5c0-.3.3-.6.6-.6h2.3c.3,0,.6.3.6.6v11.4h0s4.3,50.1,4.3,50.1c0,.3-.2.7-.6.7h-10.8c-.3,0-.6-.3-.6-.7h0Z"/>
      <path class="st0" d="M689.2-290.8c-.3,0-.6.3-.6.6v86.7h-1.2l-17-86.9c0-.3-.3-.5-.6-.5h-29.1c-.3,0-.6.3-.6.6v144.4c0,.3.3.6.6.6h25c.3,0,.6-.3.6-.6v-86.7h1.2l17.2,86.9c0,.3.3.5.6.5h28.8c.3,0,.6-.3.6-.6v-144.4c0-.3-.3-.6-.6-.6h-25,0Z"/>
    </g>
    <g>
      <path class="st0" d="M18.7-108.8l-5-20h5.9l1.7,10.3v3.3h.8v-3.3l1.7-10.3h5.6l-5,20v11h-5.6v-11h0Z"/>
      <path class="st0" d="M30.1-104.1v-18.6c0-4,2.9-6.7,7.3-6.7s7.3,2.7,7.3,6.7v18.6c0,4-2.9,6.7-7.3,6.7s-7.3-2.7-7.3-6.7ZM39.1-104.1v-18.6c0-1-.7-1.6-1.7-1.6s-1.7.6-1.7,1.6v18.6c0,1,.7,1.6,1.7,1.6s1.7-.6,1.7-1.6Z"/>
      <path class="st0" d="M47.4-104.1v-24.8h5.6v24.8c0,1,.7,1.6,1.6,1.6s1.7-.6,1.7-1.6v-24.8h5.6v24.8c0,4-2.9,6.7-7.3,6.7s-7.2-2.7-7.2-6.7Z"/>
      <path class="st0" d="M64.8-128.9h7.8c4,0,6.7,2.5,6.7,6.2v6.9c0,2-.8,3.7-2.3,4.8l2.9,13.1h-5.6l-2.3-11.8h-1.6v11.8h-5.6s0-31,0-31ZM70.4-123.8v9.3h1.6c1,0,1.7-.6,1.7-1.6v-6c0-1-.7-1.6-1.7-1.6h-1.6Z"/>
      <path class="st0" d="M93.8-97.9c-3.3-.7-5.4-3.1-5.4-6.5v-18.3c0-4,2.9-6.7,7.3-6.7s7.3,2.7,7.3,6.7v16.6c0,2.8-1.3,4.2-2.8,4.8h-.5v.6h.5c0,0,2.8,0,2.8,0v4.8l-9.2-1.9h0ZM97.4-104.5v-18.2c0-1-.7-1.6-1.7-1.6s-1.7.6-1.7,1.6v18.2c0,1,.7,1.7,1.7,1.7s1.7-.7,1.7-1.7h0Z"/>
      <path class="st0" d="M105.7-104.1v-24.8h5.6v24.8c0,1,.7,1.6,1.6,1.6s1.7-.6,1.7-1.6v-24.8h5.6v24.8c0,4-2.9,6.7-7.3,6.7s-7.2-2.7-7.2-6.7Z"/>
      <path class="st0" d="M125.5-128.9h8.6l3.7,31h-5.9l-.6-7.5h-3.3l-.6,7.5h-5.6l3.8-31ZM128.4-109.9h2.6l-.9-10.8v-2.6h-.8v2.6l-.9,10.8h0Z"/>
      <path class="st0" d="M139.7-128.9h7.8c4,0,6.7,2.5,6.7,6.2v6.9c0,2-.8,3.7-2.3,4.8l2.9,13.1h-5.6l-2.3-11.8h-1.6v11.8h-5.6v-31h0ZM145.3-123.8v9.3h1.6c1,0,1.7-.6,1.7-1.6v-6c0-1-.7-1.6-1.7-1.6h-1.6Z"/>
      <path class="st0" d="M159-123.8h-3.2v-5.1h12v5.1h-3.2v25.9h-5.6v-25.9Z"/>
      <path class="st0" d="M169.9-128.9h10.5v5.1h-5v7.7h4.5v5h-4.5v8.1h5v5.1h-10.5v-31h0Z"/>
      <path class="st0" d="M182.9-128.9h7.8c4,0,6.7,2.5,6.7,6.2v6.9c0,2-.8,3.7-2.3,4.8l2.9,13.1h-5.6l-2.3-11.8h-1.6v11.8h-5.6v-31h0ZM188.5-123.8v9.3h1.6c1,0,1.7-.6,1.7-1.6v-6c0-1-.7-1.6-1.7-1.6h-1.6Z"/>
      <path class="st0" d="M200-128.9h5.6v25.9h4.7v5.1h-10.3v-31h0Z"/>
      <path class="st0" d="M213.2-108.8l-5-20h5.9l1.7,10.3v3.3h.8v-3.3l1.7-10.3h5.6l-5.1,20v11h-5.6v-11h0Z"/>
      <path class="st0" d="M232.3-128.9h5.6v25.9h4.7v5.1h-10.3v-31h0Z"/>
      <path class="st0" d="M244.2-104.1v-18.6c0-4,2.9-6.7,7.3-6.7s7.3,2.7,7.3,6.7v18.6c0,4-2.9,6.7-7.3,6.7s-7.3-2.7-7.3-6.7ZM253.2-104.1v-18.6c0-1-.7-1.6-1.7-1.6s-1.7.6-1.7,1.6v18.6c0,1,.7,1.6,1.7,1.6s1.7-.6,1.7-1.6Z"/>
      <path class="st0" d="M261.4-104.1v-18.6c0-4,2.9-6.7,7.3-6.7s7.3,2.7,7.3,6.7v18.6c0,4-2.9,6.7-7.3,6.7s-7.3-2.7-7.3-6.7ZM270.3-104.1v-18.6c0-1-.7-1.6-1.7-1.6s-1.7.6-1.7,1.6v18.6c0,1,.7,1.6,1.7,1.6s1.7-.6,1.7-1.6Z"/>
      <path class="st0" d="M278.8-128.9h5.6v12.8h1l3.1-12.8h6.1l-4.3,15.1,4.7,15.9h-6.3l-3.1-13.2h-1v13.2h-5.6v-31h0Z"/>
      <path class="st0" d="M305.6-128.9h8.6l3.7,31h-5.9l-.6-7.5h-3.3l-.6,7.5h-5.6l3.8-31h0ZM308.5-109.9h2.6l-.9-10.8v-2.6h-.8v2.6l-.9,10.8Z"/>
      <path class="st0" d="M320.9-123.8h-3.2v-5.1h12v5.1h-3.2v25.9h-5.6v-25.9Z"/>
      <path class="st0" d="M340.8-123.8h-3.2v-5.1h12v5.1h-3.2v25.9h-5.6v-25.9Z"/>
      <path class="st0" d="M351.7-128.9h5.6v12.8h3.3v-12.8h5.6v31h-5.6v-13.2h-3.3v13.2h-5.6v-31Z"/>
      <path class="st0" d="M369.2-128.9h10.5v5.1h-5v7.7h4.5v5h-4.5v8.1h5v5.1h-10.5v-31h0Z"/>
      <path class="st0" d="M388.4-104.1v-4.6h5.6v4.6c0,1,.7,1.6,1.6,1.6s1.7-.6,1.7-1.6v-3.6c0-3.7-8.8-4.2-8.8-11.3v-3.7c0-4,2.8-6.7,7.1-6.7s7.2,2.7,7.2,6.7v4.1h-5.6v-4.2c0-.9-.6-1.6-1.6-1.6s-1.5.6-1.5,1.6v3.1c0,3.7,8.8,4.2,8.8,11.3v4.2c0,4-2.9,6.7-7.3,6.7s-7.2-2.7-7.2-6.7h0Z"/>
      <path class="st0" d="M405.4-128.9h5.6v12.8h1l3.1-12.8h6.1l-4.3,15.1,4.7,15.9h-6.3l-3.1-13.2h-1v13.2h-5.6v-31h0Z"/>
      <path class="st0" d="M423-128.9h5.6v31h-5.6v-31Z"/>
      <path class="st0" d="M431.5-128.9h10.5v5.1h-5v7.7h4.5v5h-4.5v8.1h5v5.1h-10.5v-31h0Z"/>
      <path class="st0" d="M444.1-104.1v-4.6h5.6v4.6c0,1,.7,1.6,1.6,1.6s1.7-.6,1.7-1.6v-3.6c0-3.7-8.8-4.2-8.8-11.3v-3.7c0-4,2.8-6.7,7.1-6.7s7.2,2.7,7.2,6.7v4.1h-5.6v-4.2c0-.9-.6-1.6-1.6-1.6s-1.5.6-1.5,1.6v3.1c0,3.7,8.8,4.2,8.8,11.3v4.2c0,4-2.9,6.7-7.3,6.7s-7.2-2.7-7.2-6.7h0Z"/>
      <path class="st0" d="M470.4-128.9h8.6l3.7,31h-5.9l-.6-7.5h-3.3l-.6,7.5h-5.6l3.8-31h0ZM473.3-109.9h2.6l-.9-10.8v-2.6h-.8v2.6l-.9,10.8Z"/>
      <path class="st0" d="M484.6-128.9h5.6v12.8h3.3v-12.8h5.6v31h-5.6v-13.2h-3.3v13.2h-5.6v-31Z"/>
      <path class="st0" d="M502.1-128.9h10.5v5.1h-5v7.7h4.5v5h-4.5v8.1h5v5.1h-10.5v-31h0Z"/>
      <path class="st0" d="M517.8-128.9h8.6l3.7,31h-5.9l-.6-7.5h-3.3l-.6,7.5h-5.6l3.8-31ZM520.6-109.9h2.6l-.9-10.8v-2.6h-.8v2.6l-.9,10.8Z"/>
      <path class="st0" d="M532-128.9h7.6c4.2,0,6.9,2.6,6.9,6.4v18.2c0,3.8-2.8,6.4-6.9,6.4h-7.6v-31h0ZM537.6-123.8v20.8h1.6c1,0,1.7-.6,1.7-1.6v-17.5c0-1-.7-1.6-1.7-1.6h-1.6Z"/>
    </g>
  </g>
</svg>