<?xml version="1.0" encoding="UTF-8"?>
<svg id="Layer_2" data-name="Layer 2" xmlns="http://www.w3.org/2000/svg" viewBox="0 0 718.66 197.26">
  <defs>
    <style>
      .cls-1 {
        fill: #fff;
      }
    </style>
  </defs>
  <g id="Layer_2-2" data-name="Layer 2">
    <g id="Layer_1-2" data-name="Layer 1-2">
      <g>
        <path class="cls-1" d="M90.19,106.91v11.44c0,.33-.27.6-.6.6h-2.33c-.33,0-.6-.27-.6-.6v-11.48L80.03,3.06c-.02-.32-.28-.56-.6-.56h-34.43c-.32,0-.58.25-.6.56l-6.62,103.81v11.48c0,.33-.27.6-.6.6h-2.33c-.33,0-.6-.27-.6-.6v-11.48L27.63,3.06c-.02-.32-.28-.56-.6-.56H.6C.24,2.5-.03,2.81,0,3.16l15.26,144.37c.03.31.29.54.6.54h36.33c.32,0,.58-.24.6-.56l7.03-95.5v-22.91c0-.33.27-.6.6-.6h2.33c.33,0,.6.27.6.6v22.91l7.03,95.5c.02.31.29.56.6.56h36.33c.31,0,.57-.23.6-.54L123.18,3.16c.04-.36-.24-.67-.6-.67h-24.97c-.32,0-.58.25-.6.56l-6.82,103.81v.04h0Z"/>
        <rect class="cls-1" x="135.1" y="2.5" width="26.2" height="145.57" rx=".6" ry=".6"/>
        <path class="cls-1" d="M281.68,71.54l.12,16.47c0,1.01-.81,1.83-1.81,1.83h-11.37c-5.5,0-10.33-3.67-11.8-8.98l-19.18-69.41c-1.46-5.29-6.28-8.96-11.77-8.96h-46.94c-1,0-1.81.81-1.81,1.81v141.95c0,1,.81,1.81,1.81,1.81h22.57c1,0,1.81-.81,1.81-1.81v-67.23l-.13-16.47c0-1.01.81-1.83,1.81-1.83h10.77c5.72,0,10.74,3.81,12.27,9.33l19.41,69.85c1.34,4.83,5.74,8.17,10.75,8.17h47.87c1,0,1.81-.81,1.81-1.81V4.31c0-1-.81-1.81-1.81-1.81h-22.57c-1,0-1.81.81-1.81,1.81v67.23Z"/>
        <path class="cls-1" d="M357.67,0c-20.38,0-34.11,12.69-34.11,31.4v90.67c0,17.05,11.02,28.49,27.66,28.49,9.32,0,16.79-3.51,20.14-10.12.02-.05.04-.09.05-.14l.49-1.96c.07-.27.31-.46.58-.46h1.11c.37,0,.66.33.59.7l-.29,1.74v7.14c0,.33.27.6.6.6h16.68c.33,0,.6-.27.6-.6v-83.44c0-.33-.27-.6-.6-.6h-32.9c-.33,0-.6.27-.6.6v20.42c0,.33.27.6.6.6h7.32c.33,0,.6.27.6.6v33.29c0,4.62-3.1,7.49-7.81,7.68s-8.62-3.66-8.62-8.39V32.14c0-4.62,3.81-8.42,8.43-8.21s7.38,3.08,7.38,7.68v17.91c0,.33.27.6.6.6h25c.33,0,.6-.27.6-.6v-18.11C391.77,12.69,378.04.01,357.67.01h0Z"/>
        <path class="cls-1" d="M431.49,45.75v-14.56c0-4.58,2.91-7.28,7.28-7.28s7.49,2.91,7.49,7.28v18.95c0,.33.27.6.6.6h25c.33,0,.6-.27.6-.6v-18.74c0-18.93-13.52-31.4-33.69-31.4s-33.48,12.48-33.48,31.4v17.47c0,33.48,41.38,35.98,41.38,53.24v15.98c0,5.44-5.11,9.68-10.36,8.25-3.2-.87-5.24-3.51-5.24-7.38v-21.02c0-.33-.27-.6-.6-.6h-25c-.33,0-.6.27-.6.6v21.02c0,18.93,13.52,31.61,33.9,31.61s34.1-12.69,34.1-31.61v-19.96c0-33.48-41.38-35.77-41.38-53.24h0Z"/>
        <path class="cls-1" d="M522.16,2.49h-34.96c-.33,0-.6.27-.6.6v144.37c0,.33.27.6.6.6h25c.33,0,.6-.27.6-.6v-50.16c0-.33.27-.6.6-.6h8.76c19.55,0,32.44-12.06,32.44-29.95v-34.31c0-17.88-12.89-29.95-32.44-29.95h0ZM528.4,64.69c0,4.47-3.62,8.1-8.1,8.1h-6.9c-.33,0-.6-.27-.6-.6V27.01c0-.33.27-.6.6-.6h6.69c4.59,0,8.3,3.72,8.3,8.3v29.98h.01Z"/>
        <path class="cls-1" d="M575.33,3.02l-17.53,144.37c-.04.36.24.68.6.68h25.18c.31,0,.57-.24.6-.55l2.82-34.04c.03-.31.29-.55.6-.55h14.49c.31,0,.57.24.6.55l2.82,34.04c.03.31.29.55.6.55h26.43c.36,0,.64-.32.6-.67L615.8,3.03c-.04-.3-.29-.53-.6-.53h-39.28c-.3,0-.56.23-.6.53h0ZM588.96,90.64l4.1-50.07v-11.48c0-.33.27-.6.6-.6h2.33c.33,0,.6.27.6.6v11.48l4.31,50.06c.03.35-.25.65-.6.65h-10.75c-.35,0-.63-.3-.6-.65h.01Z"/>
        <path class="cls-1" d="M693.07,2.49c-.33,0-.6.27-.6.6v86.74h-1.25l-16.96-86.86c-.06-.28-.3-.49-.59-.49h-29.06c-.33,0-.6.27-.6.6v144.37c0,.33.27.6.6.6h25c.33,0,.6-.27.6-.6l.12-86.74h1.13l17.16,86.86c.06.28.3.49.59.49h28.85c.33,0,.6-.27.6-.6V3.1c0-.33-.27-.6-.6-.6h-25,.01Z"/>
      </g>
      <g>
        <path class="cls-1" d="M22.5,184.41l-5.01-20.02h5.89l1.68,10.32v3.32h.75v-3.32l1.68-10.32h5.62l-5.05,20.02v10.99h-5.58v-10.99h.02Z"/>
        <path class="cls-1" d="M33.93,189.2v-18.65c0-3.99,2.92-6.69,7.26-6.69s7.26,2.7,7.26,6.69v18.65c0,4.03-2.92,6.73-7.26,6.73s-7.26-2.7-7.26-6.73ZM42.88,189.2v-18.6c0-1.02-.66-1.64-1.68-1.64s-1.68.62-1.68,1.64v18.6c0,1.02.66,1.64,1.68,1.64s1.68-.62,1.68-1.64Z"/>
        <path class="cls-1" d="M51.21,189.2v-24.81h5.58v24.81c0,1.02.66,1.64,1.64,1.64s1.68-.62,1.68-1.64v-24.81h5.58v24.81c0,4.03-2.92,6.73-7.26,6.73s-7.22-2.7-7.22-6.73Z"/>
        <path class="cls-1" d="M68.62,164.39h7.75c4.03,0,6.73,2.48,6.73,6.25v6.87c0,2.04-.84,3.72-2.3,4.78l2.88,13.11h-5.63l-2.3-11.83h-1.55v11.83h-5.58s0-31.01,0-31.01ZM74.2,169.49v9.3h1.64c1.02,0,1.68-.62,1.68-1.64v-6.02c0-1.02-.66-1.64-1.68-1.64h-1.64Z"/>
        <path class="cls-1" d="M97.63,195.35c-3.28-.66-5.36-3.1-5.36-6.51v-18.29c0-3.99,2.92-6.69,7.26-6.69s7.26,2.7,7.26,6.69v16.61c0,2.75-1.33,4.25-2.79,4.78l-.53.09v.49l.53-.09h2.79v4.83l-9.17-1.91h0ZM101.22,188.8v-18.21c0-1.02-.67-1.64-1.68-1.64s-1.68.62-1.68,1.64v18.21c0,1.02.66,1.68,1.68,1.68s1.68-.67,1.68-1.68h0Z"/>
        <path class="cls-1" d="M109.55,189.2v-24.81h5.58v24.81c0,1.02.67,1.64,1.64,1.64s1.68-.62,1.68-1.64v-24.81h5.58v24.81c0,4.03-2.92,6.73-7.26,6.73s-7.22-2.7-7.22-6.73Z"/>
        <path class="cls-1" d="M129.35,164.39h8.59l3.72,31.01h-5.89l-.62-7.49h-3.32l-.62,7.49h-5.62l3.76-31.01ZM132.23,183.31h2.57l-.93-10.81v-2.57h-.75v2.57l-.89,10.81h0Z"/>
        <path class="cls-1" d="M143.57,164.39h7.75c4.03,0,6.73,2.48,6.73,6.25v6.87c0,2.04-.84,3.72-2.3,4.78l2.88,13.11h-5.63l-2.3-11.83h-1.55v11.83h-5.58v-31.01h0ZM149.15,169.49v9.3h1.64c1.02,0,1.68-.62,1.68-1.64v-6.02c0-1.02-.66-1.64-1.68-1.64h-1.64Z"/>
        <path class="cls-1" d="M162.8,169.49h-3.19v-5.09h11.96v5.09h-3.19v25.91h-5.58v-25.91Z"/>
        <path class="cls-1" d="M173.7,164.39h10.54v5.09h-4.96v7.71h4.47v4.96h-4.47v8.15h4.96v5.09h-10.54v-31.01h0Z"/>
        <path class="cls-1" d="M186.72,164.39h7.75c4.03,0,6.73,2.48,6.73,6.25v6.87c0,2.04-.84,3.72-2.3,4.78l2.88,13.11h-5.63l-2.3-11.83h-1.55v11.83h-5.58v-31.01h0ZM192.3,169.49v9.3h1.64c1.02,0,1.68-.62,1.68-1.64v-6.02c0-1.02-.66-1.64-1.68-1.64h-1.64Z"/>
        <path class="cls-1" d="M203.86,164.39h5.58v25.91h4.7v5.09h-10.28v-31.01h0Z"/>
        <path class="cls-1" d="M216.98,184.41l-5.01-20.02h5.89l1.68,10.32v3.32h.75v-3.32l1.68-10.32h5.62l-5.05,20.02v10.99h-5.58v-10.99h.02Z"/>
        <path class="cls-1" d="M236.11,164.39h5.58v25.91h4.7v5.09h-10.28v-31.01h0Z"/>
        <path class="cls-1" d="M248.03,189.2v-18.65c0-3.99,2.92-6.69,7.26-6.69s7.26,2.7,7.26,6.69v18.65c0,4.03-2.92,6.73-7.26,6.73s-7.26-2.7-7.26-6.73ZM256.98,189.2v-18.6c0-1.02-.67-1.64-1.68-1.64s-1.68.62-1.68,1.64v18.6c0,1.02.66,1.64,1.68,1.64s1.68-.62,1.68-1.64Z"/>
        <path class="cls-1" d="M265.22,189.2v-18.65c0-3.99,2.92-6.69,7.26-6.69s7.26,2.7,7.26,6.69v18.65c0,4.03-2.92,6.73-7.26,6.73s-7.26-2.7-7.26-6.73ZM274.17,189.2v-18.6c0-1.02-.67-1.64-1.68-1.64s-1.68.62-1.68,1.64v18.6c0,1.02.66,1.64,1.68,1.64s1.68-.62,1.68-1.64Z"/>
        <path class="cls-1" d="M282.58,164.39h5.58v12.8h1.02l3.06-12.8h6.07l-4.34,15.11,4.7,15.9h-6.33l-3.14-13.25h-1.02v13.25h-5.58v-31.01h-.02Z"/>
        <path class="cls-1" d="M309.47,164.39h8.59l3.72,31.01h-5.89l-.62-7.49h-3.32l-.62,7.49h-5.63l3.77-31.01h0ZM312.35,183.31h2.57l-.93-10.81v-2.57h-.75v2.57l-.89,10.81Z"/>
        <path class="cls-1" d="M324.71,169.49h-3.19v-5.09h11.96v5.09h-3.19v25.91h-5.58v-25.91Z"/>
        <path class="cls-1" d="M344.6,169.49h-3.19v-5.09h11.96v5.09h-3.19v25.91h-5.58v-25.91Z"/>
        <path class="cls-1" d="M355.5,164.39h5.58v12.8h3.32v-12.8h5.58v31.01h-5.58v-13.25h-3.32v13.25h-5.58v-31.01Z"/>
        <path class="cls-1" d="M373,164.39h10.54v5.09h-4.96v7.71h4.47v4.96h-4.47v8.15h4.96v5.09h-10.54v-31.01h0Z"/>
        <path class="cls-1" d="M392.23,189.2v-4.61h5.58v4.61c0,1.02.66,1.64,1.64,1.64s1.68-.62,1.68-1.64v-3.59c0-3.68-8.82-4.21-8.82-11.34v-3.72c0-4.03,2.83-6.69,7.13-6.69s7.18,2.66,7.18,6.69v4.12h-5.58v-4.16c0-.93-.62-1.55-1.59-1.55s-1.55.58-1.55,1.55v3.1c0,3.72,8.82,4.21,8.82,11.34v4.25c0,4.03-2.92,6.73-7.26,6.73s-7.22-2.7-7.22-6.73h-.01Z"/>
        <path class="cls-1" d="M409.24,164.39h5.58v12.8h1.02l3.06-12.8h6.07l-4.34,15.11,4.7,15.9h-6.33l-3.14-13.25h-1.02v13.25h-5.58v-31.01h-.02Z"/>
        <path class="cls-1" d="M426.82,164.39h5.58v31.01h-5.58v-31.01Z"/>
        <path class="cls-1" d="M435.37,164.39h10.54v5.09h-4.96v7.71h4.47v4.96h-4.47v8.15h4.96v5.09h-10.54v-31.01h0Z"/>
        <path class="cls-1" d="M447.91,189.2v-4.61h5.58v4.61c0,1.02.66,1.64,1.64,1.64s1.68-.62,1.68-1.64v-3.59c0-3.68-8.82-4.21-8.82-11.34v-3.72c0-4.03,2.83-6.69,7.13-6.69s7.18,2.66,7.18,6.69v4.12h-5.58v-4.16c0-.93-.62-1.55-1.59-1.55s-1.55.58-1.55,1.55v3.1c0,3.72,8.82,4.21,8.82,11.34v4.25c0,4.03-2.92,6.73-7.26,6.73s-7.22-2.7-7.22-6.73h-.01Z"/>
        <path class="cls-1" d="M474.22,164.39h8.59l3.72,31.01h-5.89l-.62-7.49h-3.32l-.62,7.49h-5.63l3.77-31.01h0ZM477.1,183.31h2.57l-.93-10.81v-2.57h-.75v2.57l-.89,10.81Z"/>
        <path class="cls-1" d="M488.44,164.39h5.58v12.8h3.32v-12.8h5.58v31.01h-5.58v-13.25h-3.32v13.25h-5.58v-31.01Z"/>
        <path class="cls-1" d="M505.94,164.39h10.54v5.09h-4.96v7.71h4.47v4.96h-4.47v8.15h4.96v5.09h-10.54v-31.01h0Z"/>
        <path class="cls-1" d="M521.58,164.39h8.59l3.72,31.01h-5.89l-.62-7.49h-3.32l-.62,7.49h-5.63l3.77-31.01ZM524.46,183.31h2.57l-.93-10.81v-2.57h-.75v2.57l-.89,10.81Z"/>
        <path class="cls-1" d="M535.8,164.39h7.58c4.16,0,6.91,2.57,6.91,6.38v18.25c0,3.81-2.75,6.38-6.91,6.38h-7.58v-31.01h0ZM541.38,169.49v20.82h1.64c1.02,0,1.68-.62,1.68-1.64v-17.54c0-1.02-.67-1.64-1.68-1.64h-1.64Z"/>
      </g>
    </g>
  </g>
</svg>