<?xml version="1.0" encoding="UTF-8"?>
<svg id="Layer_1" xmlns="http://www.w3.org/2000/svg" xmlns:xlink="http://www.w3.org/1999/xlink" version="1.1" viewBox="0 0 800 800">
  <!-- Generator: Adobe Illustrator 29.3.1, SVG Export Plug-In . SVG Version: 2.1.0 Build 151)  -->
  <defs>
    <style>
      .st0 {
        fill: #fff;
      }
    </style>
  </defs>
  <path class="st0" d="M186.2,257.4H25.6c-7.1,0-12.9,5.8-12.9,12.9v515.9c0,7.1,5.8,12.9,12.9,12.9h160.6c7.1,0,12.9-5.8,12.9-12.9V270.3c0-7.1-5.8-12.9-12.9-12.9Z"/>
  <path class="st0" d="M106,.9C47.5.9,0,48.4,0,106.7s47.5,105.9,106,105.9,105.9-47.5,105.9-105.9c0-58.4-47.5-105.9-105.9-105.9Z"/>
  <path class="st0" d="M594.7,244.5c-64.5,0-112.2,27.7-141.1,59.2v-33.5c0-7.1-5.8-12.9-12.9-12.9h-153.8c-7.1,0-12.9,5.8-12.9,12.9v515.9c0,7.1,5.8,12.9,12.9,12.9h160.3c7.1,0,12.9-5.8,12.9-12.9v-255.3c0-86,23.4-119.5,83.3-119.5s70.5,53.7,70.5,124v250.8c0,7.1,5.8,12.9,12.9,12.9h160.3c7.1,0,12.9-5.8,12.9-12.9v-283c0-127.9-24.4-258.7-205.3-258.7Z"/>
</svg>